<svg contentScriptType="text/ecmascript" width="5390.0" xmlns:xlink="http://www.w3.org/1999/xlink" zoomAndPan="magnify" contentStyleType="text/css" height="44" preserveAspectRatio="xMidYMid meet" xmlns="http://www.w3.org/2000/svg" version="1.0"><defs><style type="text/css" xml:space="preserve"><![CDATA[rect {
	stroke-width: 0;
}
rect.busy {
	fill: #f23890;
}
rect.free {
	fill: #30c1e3;
}
rect.weekday {
	fill: #d2dee5;
}
rect.weekend {
	fill: #c3d3df;
}
rect.holiday {
	fill: #b6c7d1;
}
rect.header_weekday {
	fill: #c03904;
}
rect.header_weekend {
	fill: #729abd;
}
rect.header_holiday {
	fill: #5C747E;
}
rect.header_usholiday {
	fill: url(#header_usholiday);
}
rect.usholiday {
	fill: url(#usholiday);
}
line {
	stroke-width: 1;
}
line.white {
	stroke: white;
}
line.black {
	stroke: #0B1016;
}
line.usholiday {
	stroke-dasharray: 11, 11; 
	stroke: #c3d3df; 
	stroke-width: 11;
}
line.header_usholiday {
	stroke-dasharray: 11, 11; 
	stroke: #c56a47; 
	stroke-width: 11;
}
text {
	font-size: 12px;
	font-family: Arial;
	alignment-baseline: center; 
	text-anchor: middle;
	fill: #ffffff;
}]]></style></defs><rect x="0.0" width="682" height="44" y="0.0" class="header_weekday"/><line y2="44.0" x1="291.5" class="header_usholiday" x2="291.5" y1="33.0"/><line y2="33.0" x1="302.5" class="header_usholiday" x2="302.5" y1="22.0"/><line y2="44.0" x1="313.5" class="header_usholiday" x2="313.5" y1="33.0"/><line y2="33.0" x1="324.5" class="header_usholiday" x2="324.5" y1="22.0"/><line y2="44.0" x1="335.5" class="header_usholiday" x2="335.5" y1="33.0"/><line y2="33.0" x1="346.5" class="header_usholiday" x2="346.5" y1="22.0"/><line y2="44.0" x1="5.5" class="header_usholiday" x2="5.5" y1="33.0"/><line y2="33.0" x1="16.5" class="header_usholiday" x2="16.5" y1="22.0"/><line y2="44.0" x1="27.5" class="header_usholiday" x2="27.5" y1="33.0"/><line y2="33.0" x1="38.5" class="header_usholiday" x2="38.5" y1="22.0"/><rect x="0.0" width="22" height="44" y="22.0" class="header_holiday"/><rect x="22.0" width="22" height="44" y="22.0" class="header_holiday"/><rect x="594.0" width="22" height="44" y="22.0" class="header_holiday"/><rect x="506.0" width="22" height="44" y="22.0" class="header_holiday"/><rect x="572.0" width="22" height="44" y="22.0" class="header_holiday"/><rect x="484.0" width="22" height="44" y="22.0" class="header_holiday"/><rect x="528.0" width="22" height="44" y="22.0" class="header_holiday"/><rect x="550.0" width="22" height="44" y="22.0" class="header_holiday"/><rect x="462.0" width="22" height="44" y="22.0" class="header_holiday"/><rect x="0.0" width="22" height="22" y="22.0" class="header_weekend"/><rect x="132.0" width="22" height="22" y="22.0" class="header_weekend"/><rect x="154.0" width="22" height="22" y="22.0" class="header_weekend"/><rect x="286.0" width="22" height="22" y="22.0" class="header_weekend"/><rect x="308.0" width="22" height="22" y="22.0" class="header_weekend"/><rect x="440.0" width="22" height="22" y="22.0" class="header_weekend"/><rect x="462.0" width="22" height="22" y="22.0" class="header_weekend"/><rect x="594.0" width="22" height="22" y="22.0" class="header_weekend"/><rect x="616.0" width="22" height="22" y="22.0" class="header_weekend"/><text x="341.0" id="startDate" y="15.0">Jan 2012</text><line y2="21.5" x1="0.0" class="black" x2="682.0" y1="21.5"/><line y2="43.5" x1="0.0" class="black" x2="682.0" y1="43.5"/><line y2="44.0" x1="22.5" class="black" x2="22.5" y1="22.0"/><line y2="44.0" x1="44.5" class="black" x2="44.5" y1="22.0"/><line y2="44.0" x1="66.5" class="black" x2="66.5" y1="22.0"/><line y2="44.0" x1="88.5" class="black" x2="88.5" y1="22.0"/><line y2="44.0" x1="110.5" class="black" x2="110.5" y1="22.0"/><line y2="44.0" x1="132.5" class="black" x2="132.5" y1="22.0"/><line y2="44.0" x1="154.5" class="black" x2="154.5" y1="22.0"/><line y2="44.0" x1="176.5" class="black" x2="176.5" y1="22.0"/><line y2="44.0" x1="198.5" class="black" x2="198.5" y1="22.0"/><line y2="44.0" x1="220.5" class="black" x2="220.5" y1="22.0"/><line y2="44.0" x1="242.5" class="black" x2="242.5" y1="22.0"/><line y2="44.0" x1="264.5" class="black" x2="264.5" y1="22.0"/><line y2="44.0" x1="286.5" class="black" x2="286.5" y1="22.0"/><line y2="44.0" x1="308.5" class="black" x2="308.5" y1="22.0"/><line y2="44.0" x1="330.5" class="black" x2="330.5" y1="22.0"/><line y2="44.0" x1="352.5" class="black" x2="352.5" y1="22.0"/><line y2="44.0" x1="374.5" class="black" x2="374.5" y1="22.0"/><line y2="44.0" x1="396.5" class="black" x2="396.5" y1="22.0"/><line y2="44.0" x1="418.5" class="black" x2="418.5" y1="22.0"/><line y2="44.0" x1="440.5" class="black" x2="440.5" y1="22.0"/><line y2="44.0" x1="462.5" class="black" x2="462.5" y1="22.0"/><line y2="44.0" x1="484.5" class="black" x2="484.5" y1="22.0"/><line y2="44.0" x1="506.5" class="black" x2="506.5" y1="22.0"/><line y2="44.0" x1="528.5" class="black" x2="528.5" y1="22.0"/><line y2="44.0" x1="550.5" class="black" x2="550.5" y1="22.0"/><line y2="44.0" x1="572.5" class="black" x2="572.5" y1="22.0"/><line y2="44.0" x1="594.5" class="black" x2="594.5" y1="22.0"/><line y2="44.0" x1="616.5" class="black" x2="616.5" y1="22.0"/><line y2="44.0" x1="638.5" class="black" x2="638.5" y1="22.0"/><line y2="44.0" x1="660.5" class="black" x2="660.5" y1="22.0"/><line y2="44.0" x1="682.5" class="black" x2="682.5" y1="22.0"/><line y2="44.0" x1="704.5" class="black" x2="704.5" y1="22.0"/><text x="11.0" y="37.0">1</text><text x="33.0" y="37.0">2</text><text x="55.0" y="37.0">3</text><text x="77.0" y="37.0">4</text><text x="99.0" y="37.0">5</text><text x="121.0" y="37.0">6</text><text x="143.0" y="37.0">7</text><text x="165.0" y="37.0">8</text><text x="187.0" y="37.0">9</text><text x="209.0" y="37.0">10</text><text x="231.0" y="37.0">11</text><text x="253.0" y="37.0">12</text><text x="275.0" y="37.0">13</text><text x="297.0" y="37.0">14</text><text x="319.0" y="37.0">15</text><text x="341.0" y="37.0">16</text><text x="363.0" y="37.0">17</text><text x="385.0" y="37.0">18</text><text x="407.0" y="37.0">19</text><text x="429.0" y="37.0">20</text><text x="451.0" y="37.0">21</text><text x="473.0" y="37.0">22</text><text x="495.0" y="37.0">23</text><text x="517.0" y="37.0">24</text><text x="539.0" y="37.0">25</text><text x="561.0" y="37.0">26</text><text x="583.0" y="37.0">27</text><text x="605.0" y="37.0">28</text><text x="627.0" y="37.0">29</text><text x="649.0" y="37.0">30</text><text x="671.0" y="37.0">31</text><rect x="682.0" width="638" height="44" y="0.0" class="header_weekday"/><line y2="44.0" x1="1083.5" class="header_usholiday" x2="1083.5" y1="33.0"/><line y2="33.0" x1="1094.5" class="header_usholiday" x2="1094.5" y1="22.0"/><line y2="44.0" x1="1061.5" class="header_usholiday" x2="1061.5" y1="33.0"/><line y2="33.0" x1="1072.5" class="header_usholiday" x2="1072.5" y1="22.0"/><line y2="44.0" x1="1105.5" class="header_usholiday" x2="1105.5" y1="33.0"/><line y2="33.0" x1="1116.5" class="header_usholiday" x2="1116.5" y1="22.0"/><rect x="748.0" width="22" height="22" y="22.0" class="header_weekend"/><rect x="770.0" width="22" height="22" y="22.0" class="header_weekend"/><rect x="902.0" width="22" height="22" y="22.0" class="header_weekend"/><rect x="924.0" width="22" height="22" y="22.0" class="header_weekend"/><rect x="1056.0" width="22" height="22" y="22.0" class="header_weekend"/><rect x="1078.0" width="22" height="22" y="22.0" class="header_weekend"/><rect x="1210.0" width="22" height="22" y="22.0" class="header_weekend"/><rect x="1232.0" width="22" height="22" y="22.0" class="header_weekend"/><text x="1001.0" y="15.0">Feb 2012</text><line y2="21.5" x1="682.0" class="black" x2="1320.0" y1="21.5"/><line y2="43.5" x1="682.0" class="black" x2="1320.0" y1="43.5"/><line y2="44.0" x1="682.5" class="black" x2="682.5" y1="0.0"/><line y2="44.0" x1="704.5" class="black" x2="704.5" y1="22.0"/><line y2="44.0" x1="726.5" class="black" x2="726.5" y1="22.0"/><line y2="44.0" x1="748.5" class="black" x2="748.5" y1="22.0"/><line y2="44.0" x1="770.5" class="black" x2="770.5" y1="22.0"/><line y2="44.0" x1="792.5" class="black" x2="792.5" y1="22.0"/><line y2="44.0" x1="814.5" class="black" x2="814.5" y1="22.0"/><line y2="44.0" x1="836.5" class="black" x2="836.5" y1="22.0"/><line y2="44.0" x1="858.5" class="black" x2="858.5" y1="22.0"/><line y2="44.0" x1="880.5" class="black" x2="880.5" y1="22.0"/><line y2="44.0" x1="902.5" class="black" x2="902.5" y1="22.0"/><line y2="44.0" x1="924.5" class="black" x2="924.5" y1="22.0"/><line y2="44.0" x1="946.5" class="black" x2="946.5" y1="22.0"/><line y2="44.0" x1="968.5" class="black" x2="968.5" y1="22.0"/><line y2="44.0" x1="990.5" class="black" x2="990.5" y1="22.0"/><line y2="44.0" x1="1012.5" class="black" x2="1012.5" y1="22.0"/><line y2="44.0" x1="1034.5" class="black" x2="1034.5" y1="22.0"/><line y2="44.0" x1="1056.5" class="black" x2="1056.5" y1="22.0"/><line y2="44.0" x1="1078.5" class="black" x2="1078.5" y1="22.0"/><line y2="44.0" x1="1100.5" class="black" x2="1100.5" y1="22.0"/><line y2="44.0" x1="1122.5" class="black" x2="1122.5" y1="22.0"/><line y2="44.0" x1="1144.5" class="black" x2="1144.5" y1="22.0"/><line y2="44.0" x1="1166.5" class="black" x2="1166.5" y1="22.0"/><line y2="44.0" x1="1188.5" class="black" x2="1188.5" y1="22.0"/><line y2="44.0" x1="1210.5" class="black" x2="1210.5" y1="22.0"/><line y2="44.0" x1="1232.5" class="black" x2="1232.5" y1="22.0"/><line y2="44.0" x1="1254.5" class="black" x2="1254.5" y1="22.0"/><line y2="44.0" x1="1276.5" class="black" x2="1276.5" y1="22.0"/><line y2="44.0" x1="1298.5" class="black" x2="1298.5" y1="22.0"/><line y2="44.0" x1="1320.5" class="black" x2="1320.5" y1="22.0"/><line y2="44.0" x1="1342.5" class="black" x2="1342.5" y1="22.0"/><text x="693.0" y="37.0">1</text><text x="715.0" y="37.0">2</text><text x="737.0" y="37.0">3</text><text x="759.0" y="37.0">4</text><text x="781.0" y="37.0">5</text><text x="803.0" y="37.0">6</text><text x="825.0" y="37.0">7</text><text x="847.0" y="37.0">8</text><text x="869.0" y="37.0">9</text><text x="891.0" y="37.0">10</text><text x="913.0" y="37.0">11</text><text x="935.0" y="37.0">12</text><text x="957.0" y="37.0">13</text><text x="979.0" y="37.0">14</text><text x="1001.0" y="37.0">15</text><text x="1023.0" y="37.0">16</text><text x="1045.0" y="37.0">17</text><text x="1067.0" y="37.0">18</text><text x="1089.0" y="37.0">19</text><text x="1111.0" y="37.0">20</text><text x="1133.0" y="37.0">21</text><text x="1155.0" y="37.0">22</text><text x="1177.0" y="37.0">23</text><text x="1199.0" y="37.0">24</text><text x="1221.0" y="37.0">25</text><text x="1243.0" y="37.0">26</text><text x="1265.0" y="37.0">27</text><text x="1287.0" y="37.0">28</text><text x="1309.0" y="37.0">29</text><rect x="1320.0" width="682" height="44" y="0.0" class="header_weekday"/><rect x="1364.0" width="22" height="22" y="22.0" class="header_weekend"/><rect x="1386.0" width="22" height="22" y="22.0" class="header_weekend"/><rect x="1518.0" width="22" height="22" y="22.0" class="header_weekend"/><rect x="1540.0" width="22" height="22" y="22.0" class="header_weekend"/><rect x="1672.0" width="22" height="22" y="22.0" class="header_weekend"/><rect x="1694.0" width="22" height="22" y="22.0" class="header_weekend"/><rect x="1826.0" width="22" height="22" y="22.0" class="header_weekend"/><rect x="1848.0" width="22" height="22" y="22.0" class="header_weekend"/><rect x="1980.0" width="22" height="22" y="22.0" class="header_weekend"/><text x="1661.0" y="15.0">Mar 2012</text><line y2="21.5" x1="1320.0" class="black" x2="2002.0" y1="21.5"/><line y2="43.5" x1="1320.0" class="black" x2="2002.0" y1="43.5"/><line y2="44.0" x1="1320.5" class="black" x2="1320.5" y1="0.0"/><line y2="44.0" x1="1342.5" class="black" x2="1342.5" y1="22.0"/><line y2="44.0" x1="1364.5" class="black" x2="1364.5" y1="22.0"/><line y2="44.0" x1="1386.5" class="black" x2="1386.5" y1="22.0"/><line y2="44.0" x1="1408.5" class="black" x2="1408.5" y1="22.0"/><line y2="44.0" x1="1430.5" class="black" x2="1430.5" y1="22.0"/><line y2="44.0" x1="1452.5" class="black" x2="1452.5" y1="22.0"/><line y2="44.0" x1="1474.5" class="black" x2="1474.5" y1="22.0"/><line y2="44.0" x1="1496.5" class="black" x2="1496.5" y1="22.0"/><line y2="44.0" x1="1518.5" class="black" x2="1518.5" y1="22.0"/><line y2="44.0" x1="1540.5" class="black" x2="1540.5" y1="22.0"/><line y2="44.0" x1="1562.5" class="black" x2="1562.5" y1="22.0"/><line y2="44.0" x1="1584.5" class="black" x2="1584.5" y1="22.0"/><line y2="44.0" x1="1606.5" class="black" x2="1606.5" y1="22.0"/><line y2="44.0" x1="1628.5" class="black" x2="1628.5" y1="22.0"/><line y2="44.0" x1="1650.5" class="black" x2="1650.5" y1="22.0"/><line y2="44.0" x1="1672.5" class="black" x2="1672.5" y1="22.0"/><line y2="44.0" x1="1694.5" class="black" x2="1694.5" y1="22.0"/><line y2="44.0" x1="1716.5" class="black" x2="1716.5" y1="22.0"/><line y2="44.0" x1="1738.5" class="black" x2="1738.5" y1="22.0"/><line y2="44.0" x1="1760.5" class="black" x2="1760.5" y1="22.0"/><line y2="44.0" x1="1782.5" class="black" x2="1782.5" y1="22.0"/><line y2="44.0" x1="1804.5" class="black" x2="1804.5" y1="22.0"/><line y2="44.0" x1="1826.5" class="black" x2="1826.5" y1="22.0"/><line y2="44.0" x1="1848.5" class="black" x2="1848.5" y1="22.0"/><line y2="44.0" x1="1870.5" class="black" x2="1870.5" y1="22.0"/><line y2="44.0" x1="1892.5" class="black" x2="1892.5" y1="22.0"/><line y2="44.0" x1="1914.5" class="black" x2="1914.5" y1="22.0"/><line y2="44.0" x1="1936.5" class="black" x2="1936.5" y1="22.0"/><line y2="44.0" x1="1958.5" class="black" x2="1958.5" y1="22.0"/><line y2="44.0" x1="1980.5" class="black" x2="1980.5" y1="22.0"/><line y2="44.0" x1="2002.5" class="black" x2="2002.5" y1="22.0"/><line y2="44.0" x1="2024.5" class="black" x2="2024.5" y1="22.0"/><text x="1331.0" y="37.0">1</text><text x="1353.0" y="37.0">2</text><text x="1375.0" y="37.0">3</text><text x="1397.0" y="37.0">4</text><text x="1419.0" y="37.0">5</text><text x="1441.0" y="37.0">6</text><text x="1463.0" y="37.0">7</text><text x="1485.0" y="37.0">8</text><text x="1507.0" y="37.0">9</text><text x="1529.0" y="37.0">10</text><text x="1551.0" y="37.0">11</text><text x="1573.0" y="37.0">12</text><text x="1595.0" y="37.0">13</text><text x="1617.0" y="37.0">14</text><text x="1639.0" y="37.0">15</text><text x="1661.0" y="37.0">16</text><text x="1683.0" y="37.0">17</text><text x="1705.0" y="37.0">18</text><text x="1727.0" y="37.0">19</text><text x="1749.0" y="37.0">20</text><text x="1771.0" y="37.0">21</text><text x="1793.0" y="37.0">22</text><text x="1815.0" y="37.0">23</text><text x="1837.0" y="37.0">24</text><text x="1859.0" y="37.0">25</text><text x="1881.0" y="37.0">26</text><text x="1903.0" y="37.0">27</text><text x="1925.0" y="37.0">28</text><text x="1947.0" y="37.0">29</text><text x="1969.0" y="37.0">30</text><text x="1991.0" y="37.0">31</text><rect x="2002.0" width="660" height="44" y="0.0" class="header_weekday"/><rect x="2068.0" width="22" height="44" y="22.0" class="header_holiday"/><rect x="2002.0" width="22" height="22" y="22.0" class="header_weekend"/><rect x="2134.0" width="22" height="22" y="22.0" class="header_weekend"/><rect x="2156.0" width="22" height="22" y="22.0" class="header_weekend"/><rect x="2288.0" width="22" height="22" y="22.0" class="header_weekend"/><rect x="2310.0" width="22" height="22" y="22.0" class="header_weekend"/><rect x="2442.0" width="22" height="22" y="22.0" class="header_weekend"/><rect x="2464.0" width="22" height="22" y="22.0" class="header_weekend"/><rect x="2596.0" width="22" height="22" y="22.0" class="header_weekend"/><rect x="2618.0" width="22" height="22" y="22.0" class="header_weekend"/><text x="2332.0" y="15.0">Apr 2012</text><line y2="21.5" x1="2002.0" class="black" x2="2662.0" y1="21.5"/><line y2="43.5" x1="2002.0" class="black" x2="2662.0" y1="43.5"/><line y2="44.0" x1="2002.5" class="black" x2="2002.5" y1="0.0"/><line y2="44.0" x1="2024.5" class="black" x2="2024.5" y1="22.0"/><line y2="44.0" x1="2046.5" class="black" x2="2046.5" y1="22.0"/><line y2="44.0" x1="2068.5" class="black" x2="2068.5" y1="22.0"/><line y2="44.0" x1="2090.5" class="black" x2="2090.5" y1="22.0"/><line y2="44.0" x1="2112.5" class="black" x2="2112.5" y1="22.0"/><line y2="44.0" x1="2134.5" class="black" x2="2134.5" y1="22.0"/><line y2="44.0" x1="2156.5" class="black" x2="2156.5" y1="22.0"/><line y2="44.0" x1="2178.5" class="black" x2="2178.5" y1="22.0"/><line y2="44.0" x1="2200.5" class="black" x2="2200.5" y1="22.0"/><line y2="44.0" x1="2222.5" class="black" x2="2222.5" y1="22.0"/><line y2="44.0" x1="2244.5" class="black" x2="2244.5" y1="22.0"/><line y2="44.0" x1="2266.5" class="black" x2="2266.5" y1="22.0"/><line y2="44.0" x1="2288.5" class="black" x2="2288.5" y1="22.0"/><line y2="44.0" x1="2310.5" class="black" x2="2310.5" y1="22.0"/><line y2="44.0" x1="2332.5" class="black" x2="2332.5" y1="22.0"/><line y2="44.0" x1="2354.5" class="black" x2="2354.5" y1="22.0"/><line y2="44.0" x1="2376.5" class="black" x2="2376.5" y1="22.0"/><line y2="44.0" x1="2398.5" class="black" x2="2398.5" y1="22.0"/><line y2="44.0" x1="2420.5" class="black" x2="2420.5" y1="22.0"/><line y2="44.0" x1="2442.5" class="black" x2="2442.5" y1="22.0"/><line y2="44.0" x1="2464.5" class="black" x2="2464.5" y1="22.0"/><line y2="44.0" x1="2486.5" class="black" x2="2486.5" y1="22.0"/><line y2="44.0" x1="2508.5" class="black" x2="2508.5" y1="22.0"/><line y2="44.0" x1="2530.5" class="black" x2="2530.5" y1="22.0"/><line y2="44.0" x1="2552.5" class="black" x2="2552.5" y1="22.0"/><line y2="44.0" x1="2574.5" class="black" x2="2574.5" y1="22.0"/><line y2="44.0" x1="2596.5" class="black" x2="2596.5" y1="22.0"/><line y2="44.0" x1="2618.5" class="black" x2="2618.5" y1="22.0"/><line y2="44.0" x1="2640.5" class="black" x2="2640.5" y1="22.0"/><line y2="44.0" x1="2662.5" class="black" x2="2662.5" y1="22.0"/><line y2="44.0" x1="2684.5" class="black" x2="2684.5" y1="22.0"/><text x="2013.0" y="37.0">1</text><text x="2035.0" y="37.0">2</text><text x="2057.0" y="37.0">3</text><text x="2079.0" y="37.0">4</text><text x="2101.0" y="37.0">5</text><text x="2123.0" y="37.0">6</text><text x="2145.0" y="37.0">7</text><text x="2167.0" y="37.0">8</text><text x="2189.0" y="37.0">9</text><text x="2211.0" y="37.0">10</text><text x="2233.0" y="37.0">11</text><text x="2255.0" y="37.0">12</text><text x="2277.0" y="37.0">13</text><text x="2299.0" y="37.0">14</text><text x="2321.0" y="37.0">15</text><text x="2343.0" y="37.0">16</text><text x="2365.0" y="37.0">17</text><text x="2387.0" y="37.0">18</text><text x="2409.0" y="37.0">19</text><text x="2431.0" y="37.0">20</text><text x="2453.0" y="37.0">21</text><text x="2475.0" y="37.0">22</text><text x="2497.0" y="37.0">23</text><text x="2519.0" y="37.0">24</text><text x="2541.0" y="37.0">25</text><text x="2563.0" y="37.0">26</text><text x="2585.0" y="37.0">27</text><text x="2607.0" y="37.0">28</text><text x="2629.0" y="37.0">29</text><text x="2651.0" y="37.0">30</text><rect x="2662.0" width="682" height="44" y="0.0" class="header_weekday"/><line y2="44.0" x1="3239.5" class="header_usholiday" x2="3239.5" y1="33.0"/><line y2="33.0" x1="3250.5" class="header_usholiday" x2="3250.5" y1="22.0"/><line y2="44.0" x1="3217.5" class="header_usholiday" x2="3217.5" y1="33.0"/><line y2="33.0" x1="3228.5" class="header_usholiday" x2="3228.5" y1="22.0"/><line y2="44.0" x1="3261.5" class="header_usholiday" x2="3261.5" y1="33.0"/><line y2="33.0" x1="3272.5" class="header_usholiday" x2="3272.5" y1="22.0"/><rect x="2662.0" width="22" height="44" y="22.0" class="header_holiday"/><rect x="2750.0" width="22" height="22" y="22.0" class="header_weekend"/><rect x="2772.0" width="22" height="22" y="22.0" class="header_weekend"/><rect x="2904.0" width="22" height="22" y="22.0" class="header_weekend"/><rect x="2926.0" width="22" height="22" y="22.0" class="header_weekend"/><rect x="3058.0" width="22" height="22" y="22.0" class="header_weekend"/><rect x="3080.0" width="22" height="22" y="22.0" class="header_weekend"/><rect x="3212.0" width="22" height="22" y="22.0" class="header_weekend"/><rect x="3234.0" width="22" height="22" y="22.0" class="header_weekend"/><text x="3003.0" y="15.0">May 2012</text><line y2="21.5" x1="2662.0" class="black" x2="3344.0" y1="21.5"/><line y2="43.5" x1="2662.0" class="black" x2="3344.0" y1="43.5"/><line y2="44.0" x1="2662.5" class="black" x2="2662.5" y1="0.0"/><line y2="44.0" x1="2684.5" class="black" x2="2684.5" y1="22.0"/><line y2="44.0" x1="2706.5" class="black" x2="2706.5" y1="22.0"/><line y2="44.0" x1="2728.5" class="black" x2="2728.5" y1="22.0"/><line y2="44.0" x1="2750.5" class="black" x2="2750.5" y1="22.0"/><line y2="44.0" x1="2772.5" class="black" x2="2772.5" y1="22.0"/><line y2="44.0" x1="2794.5" class="black" x2="2794.5" y1="22.0"/><line y2="44.0" x1="2816.5" class="black" x2="2816.5" y1="22.0"/><line y2="44.0" x1="2838.5" class="black" x2="2838.5" y1="22.0"/><line y2="44.0" x1="2860.5" class="black" x2="2860.5" y1="22.0"/><line y2="44.0" x1="2882.5" class="black" x2="2882.5" y1="22.0"/><line y2="44.0" x1="2904.5" class="black" x2="2904.5" y1="22.0"/><line y2="44.0" x1="2926.5" class="black" x2="2926.5" y1="22.0"/><line y2="44.0" x1="2948.5" class="black" x2="2948.5" y1="22.0"/><line y2="44.0" x1="2970.5" class="black" x2="2970.5" y1="22.0"/><line y2="44.0" x1="2992.5" class="black" x2="2992.5" y1="22.0"/><line y2="44.0" x1="3014.5" class="black" x2="3014.5" y1="22.0"/><line y2="44.0" x1="3036.5" class="black" x2="3036.5" y1="22.0"/><line y2="44.0" x1="3058.5" class="black" x2="3058.5" y1="22.0"/><line y2="44.0" x1="3080.5" class="black" x2="3080.5" y1="22.0"/><line y2="44.0" x1="3102.5" class="black" x2="3102.5" y1="22.0"/><line y2="44.0" x1="3124.5" class="black" x2="3124.5" y1="22.0"/><line y2="44.0" x1="3146.5" class="black" x2="3146.5" y1="22.0"/><line y2="44.0" x1="3168.5" class="black" x2="3168.5" y1="22.0"/><line y2="44.0" x1="3190.5" class="black" x2="3190.5" y1="22.0"/><line y2="44.0" x1="3212.5" class="black" x2="3212.5" y1="22.0"/><line y2="44.0" x1="3234.5" class="black" x2="3234.5" y1="22.0"/><line y2="44.0" x1="3256.5" class="black" x2="3256.5" y1="22.0"/><line y2="44.0" x1="3278.5" class="black" x2="3278.5" y1="22.0"/><line y2="44.0" x1="3300.5" class="black" x2="3300.5" y1="22.0"/><line y2="44.0" x1="3322.5" class="black" x2="3322.5" y1="22.0"/><line y2="44.0" x1="3344.5" class="black" x2="3344.5" y1="22.0"/><line y2="44.0" x1="3366.5" class="black" x2="3366.5" y1="22.0"/><text x="2673.0" y="37.0">1</text><text x="2695.0" y="37.0">2</text><text x="2717.0" y="37.0">3</text><text x="2739.0" y="37.0">4</text><text x="2761.0" y="37.0">5</text><text x="2783.0" y="37.0">6</text><text x="2805.0" y="37.0">7</text><text x="2827.0" y="37.0">8</text><text x="2849.0" y="37.0">9</text><text x="2871.0" y="37.0">10</text><text x="2893.0" y="37.0">11</text><text x="2915.0" y="37.0">12</text><text x="2937.0" y="37.0">13</text><text x="2959.0" y="37.0">14</text><text x="2981.0" y="37.0">15</text><text x="3003.0" y="37.0">16</text><text x="3025.0" y="37.0">17</text><text x="3047.0" y="37.0">18</text><text x="3069.0" y="37.0">19</text><text x="3091.0" y="37.0">20</text><text x="3113.0" y="37.0">21</text><text x="3135.0" y="37.0">22</text><text x="3157.0" y="37.0">23</text><text x="3179.0" y="37.0">24</text><text x="3201.0" y="37.0">25</text><text x="3223.0" y="37.0">26</text><text x="3245.0" y="37.0">27</text><text x="3267.0" y="37.0">28</text><text x="3289.0" y="37.0">29</text><text x="3311.0" y="37.0">30</text><text x="3333.0" y="37.0">31</text><rect x="3344.0" width="660" height="44" y="0.0" class="header_weekday"/><rect x="3806.0" width="22" height="44" y="22.0" class="header_holiday"/><rect x="3366.0" width="22" height="22" y="22.0" class="header_weekend"/><rect x="3388.0" width="22" height="22" y="22.0" class="header_weekend"/><rect x="3520.0" width="22" height="22" y="22.0" class="header_weekend"/><rect x="3542.0" width="22" height="22" y="22.0" class="header_weekend"/><rect x="3674.0" width="22" height="22" y="22.0" class="header_weekend"/><rect x="3696.0" width="22" height="22" y="22.0" class="header_weekend"/><rect x="3828.0" width="22" height="22" y="22.0" class="header_weekend"/><rect x="3850.0" width="22" height="22" y="22.0" class="header_weekend"/><rect x="3982.0" width="22" height="22" y="22.0" class="header_weekend"/><text x="3674.0" y="15.0">Jun 2012</text><line y2="21.5" x1="3344.0" class="black" x2="4004.0" y1="21.5"/><line y2="43.5" x1="3344.0" class="black" x2="4004.0" y1="43.5"/><line y2="44.0" x1="3344.5" class="black" x2="3344.5" y1="0.0"/><line y2="44.0" x1="3366.5" class="black" x2="3366.5" y1="22.0"/><line y2="44.0" x1="3388.5" class="black" x2="3388.5" y1="22.0"/><line y2="44.0" x1="3410.5" class="black" x2="3410.5" y1="22.0"/><line y2="44.0" x1="3432.5" class="black" x2="3432.5" y1="22.0"/><line y2="44.0" x1="3454.5" class="black" x2="3454.5" y1="22.0"/><line y2="44.0" x1="3476.5" class="black" x2="3476.5" y1="22.0"/><line y2="44.0" x1="3498.5" class="black" x2="3498.5" y1="22.0"/><line y2="44.0" x1="3520.5" class="black" x2="3520.5" y1="22.0"/><line y2="44.0" x1="3542.5" class="black" x2="3542.5" y1="22.0"/><line y2="44.0" x1="3564.5" class="black" x2="3564.5" y1="22.0"/><line y2="44.0" x1="3586.5" class="black" x2="3586.5" y1="22.0"/><line y2="44.0" x1="3608.5" class="black" x2="3608.5" y1="22.0"/><line y2="44.0" x1="3630.5" class="black" x2="3630.5" y1="22.0"/><line y2="44.0" x1="3652.5" class="black" x2="3652.5" y1="22.0"/><line y2="44.0" x1="3674.5" class="black" x2="3674.5" y1="22.0"/><line y2="44.0" x1="3696.5" class="black" x2="3696.5" y1="22.0"/><line y2="44.0" x1="3718.5" class="black" x2="3718.5" y1="22.0"/><line y2="44.0" x1="3740.5" class="black" x2="3740.5" y1="22.0"/><line y2="44.0" x1="3762.5" class="black" x2="3762.5" y1="22.0"/><line y2="44.0" x1="3784.5" class="black" x2="3784.5" y1="22.0"/><line y2="44.0" x1="3806.5" class="black" x2="3806.5" y1="22.0"/><line y2="44.0" x1="3828.5" class="black" x2="3828.5" y1="22.0"/><line y2="44.0" x1="3850.5" class="black" x2="3850.5" y1="22.0"/><line y2="44.0" x1="3872.5" class="black" x2="3872.5" y1="22.0"/><line y2="44.0" x1="3894.5" class="black" x2="3894.5" y1="22.0"/><line y2="44.0" x1="3916.5" class="black" x2="3916.5" y1="22.0"/><line y2="44.0" x1="3938.5" class="black" x2="3938.5" y1="22.0"/><line y2="44.0" x1="3960.5" class="black" x2="3960.5" y1="22.0"/><line y2="44.0" x1="3982.5" class="black" x2="3982.5" y1="22.0"/><line y2="44.0" x1="4004.5" class="black" x2="4004.5" y1="22.0"/><line y2="44.0" x1="4026.5" class="black" x2="4026.5" y1="22.0"/><text x="3355.0" y="37.0">1</text><text x="3377.0" y="37.0">2</text><text x="3399.0" y="37.0">3</text><text x="3421.0" y="37.0">4</text><text x="3443.0" y="37.0">5</text><text x="3465.0" y="37.0">6</text><text x="3487.0" y="37.0">7</text><text x="3509.0" y="37.0">8</text><text x="3531.0" y="37.0">9</text><text x="3553.0" y="37.0">10</text><text x="3575.0" y="37.0">11</text><text x="3597.0" y="37.0">12</text><text x="3619.0" y="37.0">13</text><text x="3641.0" y="37.0">14</text><text x="3663.0" y="37.0">15</text><text x="3685.0" y="37.0">16</text><text x="3707.0" y="37.0">17</text><text x="3729.0" y="37.0">18</text><text x="3751.0" y="37.0">19</text><text x="3773.0" y="37.0">20</text><text x="3795.0" y="37.0">21</text><text x="3817.0" y="37.0">22</text><text x="3839.0" y="37.0">23</text><text x="3861.0" y="37.0">24</text><text x="3883.0" y="37.0">25</text><text x="3905.0" y="37.0">26</text><text x="3927.0" y="37.0">27</text><text x="3949.0" y="37.0">28</text><text x="3971.0" y="37.0">29</text><text x="3993.0" y="37.0">30</text><rect x="4004.0" width="682" height="44" y="0.0" class="header_weekday"/><line y2="44.0" x1="4075.5" class="header_usholiday" x2="4075.5" y1="33.0"/><line y2="33.0" x1="4086.5" class="header_usholiday" x2="4086.5" y1="22.0"/><rect x="4004.0" width="22" height="22" y="22.0" class="header_weekend"/><rect x="4136.0" width="22" height="22" y="22.0" class="header_weekend"/><rect x="4158.0" width="22" height="22" y="22.0" class="header_weekend"/><rect x="4290.0" width="22" height="22" y="22.0" class="header_weekend"/><rect x="4312.0" width="22" height="22" y="22.0" class="header_weekend"/><rect x="4444.0" width="22" height="22" y="22.0" class="header_weekend"/><rect x="4466.0" width="22" height="22" y="22.0" class="header_weekend"/><rect x="4598.0" width="22" height="22" y="22.0" class="header_weekend"/><rect x="4620.0" width="22" height="22" y="22.0" class="header_weekend"/><text x="4345.0" y="15.0">Jul 2012</text><line y2="21.5" x1="4004.0" class="black" x2="4686.0" y1="21.5"/><line y2="43.5" x1="4004.0" class="black" x2="4686.0" y1="43.5"/><line y2="44.0" x1="4004.5" class="black" x2="4004.5" y1="0.0"/><line y2="44.0" x1="4026.5" class="black" x2="4026.5" y1="22.0"/><line y2="44.0" x1="4048.5" class="black" x2="4048.5" y1="22.0"/><line y2="44.0" x1="4070.5" class="black" x2="4070.5" y1="22.0"/><line y2="44.0" x1="4092.5" class="black" x2="4092.5" y1="22.0"/><line y2="44.0" x1="4114.5" class="black" x2="4114.5" y1="22.0"/><line y2="44.0" x1="4136.5" class="black" x2="4136.5" y1="22.0"/><line y2="44.0" x1="4158.5" class="black" x2="4158.5" y1="22.0"/><line y2="44.0" x1="4180.5" class="black" x2="4180.5" y1="22.0"/><line y2="44.0" x1="4202.5" class="black" x2="4202.5" y1="22.0"/><line y2="44.0" x1="4224.5" class="black" x2="4224.5" y1="22.0"/><line y2="44.0" x1="4246.5" class="black" x2="4246.5" y1="22.0"/><line y2="44.0" x1="4268.5" class="black" x2="4268.5" y1="22.0"/><line y2="44.0" x1="4290.5" class="black" x2="4290.5" y1="22.0"/><line y2="44.0" x1="4312.5" class="black" x2="4312.5" y1="22.0"/><line y2="44.0" x1="4334.5" class="black" x2="4334.5" y1="22.0"/><line y2="44.0" x1="4356.5" class="black" x2="4356.5" y1="22.0"/><line y2="44.0" x1="4378.5" class="black" x2="4378.5" y1="22.0"/><line y2="44.0" x1="4400.5" class="black" x2="4400.5" y1="22.0"/><line y2="44.0" x1="4422.5" class="black" x2="4422.5" y1="22.0"/><line y2="44.0" x1="4444.5" class="black" x2="4444.5" y1="22.0"/><line y2="44.0" x1="4466.5" class="black" x2="4466.5" y1="22.0"/><line y2="44.0" x1="4488.5" class="black" x2="4488.5" y1="22.0"/><line y2="44.0" x1="4510.5" class="black" x2="4510.5" y1="22.0"/><line y2="44.0" x1="4532.5" class="black" x2="4532.5" y1="22.0"/><line y2="44.0" x1="4554.5" class="black" x2="4554.5" y1="22.0"/><line y2="44.0" x1="4576.5" class="black" x2="4576.5" y1="22.0"/><line y2="44.0" x1="4598.5" class="black" x2="4598.5" y1="22.0"/><line y2="44.0" x1="4620.5" class="black" x2="4620.5" y1="22.0"/><line y2="44.0" x1="4642.5" class="black" x2="4642.5" y1="22.0"/><line y2="44.0" x1="4664.5" class="black" x2="4664.5" y1="22.0"/><line y2="44.0" x1="4686.5" class="black" x2="4686.5" y1="22.0"/><line y2="44.0" x1="4708.5" class="black" x2="4708.5" y1="22.0"/><text x="4015.0" y="37.0">1</text><text x="4037.0" y="37.0">2</text><text x="4059.0" y="37.0">3</text><text x="4081.0" y="37.0">4</text><text x="4103.0" y="37.0">5</text><text x="4125.0" y="37.0">6</text><text x="4147.0" y="37.0">7</text><text x="4169.0" y="37.0">8</text><text x="4191.0" y="37.0">9</text><text x="4213.0" y="37.0">10</text><text x="4235.0" y="37.0">11</text><text x="4257.0" y="37.0">12</text><text x="4279.0" y="37.0">13</text><text x="4301.0" y="37.0">14</text><text x="4323.0" y="37.0">15</text><text x="4345.0" y="37.0">16</text><text x="4367.0" y="37.0">17</text><text x="4389.0" y="37.0">18</text><text x="4411.0" y="37.0">19</text><text x="4433.0" y="37.0">20</text><text x="4455.0" y="37.0">21</text><text x="4477.0" y="37.0">22</text><text x="4499.0" y="37.0">23</text><text x="4521.0" y="37.0">24</text><text x="4543.0" y="37.0">25</text><text x="4565.0" y="37.0">26</text><text x="4587.0" y="37.0">27</text><text x="4609.0" y="37.0">28</text><text x="4631.0" y="37.0">29</text><text x="4653.0" y="37.0">30</text><text x="4675.0" y="37.0">31</text><rect x="4686.0" width="682" height="44" y="0.0" class="header_weekday"/><rect x="4752.0" width="22" height="22" y="22.0" class="header_weekend"/><rect x="4774.0" width="22" height="22" y="22.0" class="header_weekend"/><rect x="4906.0" width="22" height="22" y="22.0" class="header_weekend"/><rect x="4928.0" width="22" height="22" y="22.0" class="header_weekend"/><rect x="5060.0" width="22" height="22" y="22.0" class="header_weekend"/><rect x="5082.0" width="22" height="22" y="22.0" class="header_weekend"/><rect x="5214.0" width="22" height="22" y="22.0" class="header_weekend"/><rect x="5236.0" width="22" height="22" y="22.0" class="header_weekend"/><text x="5027.0" y="15.0">Aug 2012</text><line y2="21.5" x1="4686.0" class="black" x2="5368.0" y1="21.5"/><line y2="43.5" x1="4686.0" class="black" x2="5368.0" y1="43.5"/><line y2="44.0" x1="4686.5" class="black" x2="4686.5" y1="0.0"/><line y2="44.0" x1="4708.5" class="black" x2="4708.5" y1="22.0"/><line y2="44.0" x1="4730.5" class="black" x2="4730.5" y1="22.0"/><line y2="44.0" x1="4752.5" class="black" x2="4752.5" y1="22.0"/><line y2="44.0" x1="4774.5" class="black" x2="4774.5" y1="22.0"/><line y2="44.0" x1="4796.5" class="black" x2="4796.5" y1="22.0"/><line y2="44.0" x1="4818.5" class="black" x2="4818.5" y1="22.0"/><line y2="44.0" x1="4840.5" class="black" x2="4840.5" y1="22.0"/><line y2="44.0" x1="4862.5" class="black" x2="4862.5" y1="22.0"/><line y2="44.0" x1="4884.5" class="black" x2="4884.5" y1="22.0"/><line y2="44.0" x1="4906.5" class="black" x2="4906.5" y1="22.0"/><line y2="44.0" x1="4928.5" class="black" x2="4928.5" y1="22.0"/><line y2="44.0" x1="4950.5" class="black" x2="4950.5" y1="22.0"/><line y2="44.0" x1="4972.5" class="black" x2="4972.5" y1="22.0"/><line y2="44.0" x1="4994.5" class="black" x2="4994.5" y1="22.0"/><line y2="44.0" x1="5016.5" class="black" x2="5016.5" y1="22.0"/><line y2="44.0" x1="5038.5" class="black" x2="5038.5" y1="22.0"/><line y2="44.0" x1="5060.5" class="black" x2="5060.5" y1="22.0"/><line y2="44.0" x1="5082.5" class="black" x2="5082.5" y1="22.0"/><line y2="44.0" x1="5104.5" class="black" x2="5104.5" y1="22.0"/><line y2="44.0" x1="5126.5" class="black" x2="5126.5" y1="22.0"/><line y2="44.0" x1="5148.5" class="black" x2="5148.5" y1="22.0"/><line y2="44.0" x1="5170.5" class="black" x2="5170.5" y1="22.0"/><line y2="44.0" x1="5192.5" class="black" x2="5192.5" y1="22.0"/><line y2="44.0" x1="5214.5" class="black" x2="5214.5" y1="22.0"/><line y2="44.0" x1="5236.5" class="black" x2="5236.5" y1="22.0"/><line y2="44.0" x1="5258.5" class="black" x2="5258.5" y1="22.0"/><line y2="44.0" x1="5280.5" class="black" x2="5280.5" y1="22.0"/><line y2="44.0" x1="5302.5" class="black" x2="5302.5" y1="22.0"/><line y2="44.0" x1="5324.5" class="black" x2="5324.5" y1="22.0"/><line y2="44.0" x1="5346.5" class="black" x2="5346.5" y1="22.0"/><line y2="44.0" x1="5368.5" class="black" x2="5368.5" y1="22.0"/><line y2="44.0" x1="5390.5" class="black" x2="5390.5" y1="22.0"/><text x="4697.0" y="37.0">1</text><text x="4719.0" y="37.0">2</text><text x="4741.0" y="37.0">3</text><text x="4763.0" y="37.0">4</text><text x="4785.0" y="37.0">5</text><text x="4807.0" y="37.0">6</text><text x="4829.0" y="37.0">7</text><text x="4851.0" y="37.0">8</text><text x="4873.0" y="37.0">9</text><text x="4895.0" y="37.0">10</text><text x="4917.0" y="37.0">11</text><text x="4939.0" y="37.0">12</text><text x="4961.0" y="37.0">13</text><text x="4983.0" y="37.0">14</text><text x="5005.0" y="37.0">15</text><text x="5027.0" y="37.0">16</text><text x="5049.0" y="37.0">17</text><text x="5071.0" y="37.0">18</text><text x="5093.0" y="37.0">19</text><text x="5115.0" y="37.0">20</text><text x="5137.0" y="37.0">21</text><text x="5159.0" y="37.0">22</text><text x="5181.0" y="37.0">23</text><text x="5203.0" y="37.0">24</text><text x="5225.0" y="37.0">25</text><text x="5247.0" y="37.0">26</text><text x="5269.0" y="37.0">27</text><text x="5291.0" y="37.0">28</text><text x="5313.0" y="37.0">29</text><text x="5335.0" y="37.0">30</text><text x="5357.0" y="37.0">31</text></svg>